<?xml version="1.0" standalone="no"?>
<!DOCTYPE svg PUBLIC "-//W3C//DTD SVG 20010904//EN"
 "http://www.w3.org/TR/2001/REC-SVG-20010904/DTD/svg10.dtd">
<svg version="1.0" xmlns="http://www.w3.org/2000/svg"
 width="158.000000pt" height="187.000000pt" viewBox="0 0 158.000000 187.000000"
 preserveAspectRatio="xMidYMid meet">
<metadata>
Created by potrace 1.16, written by Peter Selinger 2001-2019
</metadata>
<g transform="translate(0.000000,187.000000) scale(0.100000,-0.100000)"
fill="#000000" stroke="none">
<path d="M690 1849 c-151 -40 -297 -125 -411 -238 -104 -105 -140 -175 -43
-85 268 248 694 279 1019 73 74 -46 138 -113 160 -165 17 -41 20 -130 5 -168
-8 -22 -7 -26 9 -26 29 0 103 61 128 105 17 31 23 56 23 108 0 117 -44 186
-174 272 -92 61 -174 98 -285 126 -105 27 -326 26 -431 -2z"/>
<path d="M660 1704 c-335 -61 -567 -262 -641 -554 -19 -73 -21 -103 -16 -229
5 -151 20 -217 76 -345 39 -88 171 -266 171 -230 0 5 -18 53 -39 105 -34 84
-49 147 -65 279 -7 58 14 209 40 289 74 235 277 449 505 535 139 52 320 68
452 40 47 -11 30 12 -30 39 -99 44 -209 69 -323 72 -58 2 -116 1 -130 -1z
m328 -40 c46 -14 96 -31 111 -39 23 -12 17 -13 -65 -8 -453 29 -849 -312 -896
-770 -15 -150 14 -315 77 -438 30 -57 -7 -18 -64 68 -57 85 -101 192 -126 306
-26 119 -18 305 19 412 79 229 260 399 501 470 137 40 301 40 443 -1z"/>
<path d="M819 1465 c-62 -34 -78 -147 -28 -201 47 -50 151 -50 199 1 49 52 32
162 -29 198 -35 20 -106 22 -142 2z"/>
<path d="M1387 1373 c-20 -52 -90 -114 -174 -157 -38 -19 -143 -59 -234 -90
-91 -31 -190 -67 -220 -81 -173 -80 -236 -195 -206 -377 10 -57 22 -61 36 -12
23 82 116 180 231 241 30 16 118 58 195 93 303 137 380 203 400 342 4 25 3 54
-2 63 -8 14 -12 11 -26 -22z"/>
<path d="M1045 966 c-55 -13 -136 -55 -142 -72 -3 -8 19 -10 69 -7 49 3 88 -1
118 -11 34 -12 37 -14 10 -8 -68 14 -182 6 -239 -17 -181 -73 -272 -275 -210
-463 21 -66 45 -106 55 -95 3 3 -2 29 -11 58 -93 279 217 518 466 360 158
-100 189 -312 68 -464 -17 -21 -28 -41 -25 -44 10 -10 73 51 105 104 104 166
72 369 -77 490 -29 24 -48 43 -41 43 25 0 140 -130 166 -187 34 -76 41 -176
19 -262 -9 -34 -16 -68 -16 -74 0 -25 73 62 103 123 29 59 32 73 32 160 0 82
-4 103 -27 152 -53 113 -158 195 -279 218 -63 12 -80 12 -144 -4z"/>
<path d="M286 953 c-21 -70 -38 -218 -33 -298 20 -331 186 -542 496 -631 81
-23 105 -26 214 -22 112 3 127 6 189 35 68 32 158 111 158 139 0 19 -4 18 -48
-9 -66 -41 -125 -59 -213 -64 -104 -7 -200 9 -297 47 -196 79 -328 227 -404
454 -26 77 -31 110 -36 228 -5 128 -13 164 -26 121z m38 -322 c89 -331 357
-542 687 -542 96 0 150 11 221 47 59 30 62 17 6 -29 -95 -76 -192 -103 -341
-94 -172 11 -329 79 -442 192 -145 144 -215 366 -185 585 19 140 25 144 31 20
3 -63 14 -144 23 -179z"/>
</g>
</svg>
